# xmcd
#
# Track frame offsets: 
#        150
#        11405
#        24727
#        36051
#        47153
#        59042
#        71634
#        82548
#        93867
#        111696
#        127013
#        139448
#        150040
#        160825
#        171357
#        180634
#        189828
#        201573
#
# Disc length: 2873 seconds
#
# Revision: 0
# Processed by: cddbd v1.5PL3 Copyright (c) Steve Scherf et al.
# Submitted via: ExactAudioCopy v0.95a5
#
DISCID=f50b3712
DTITLE=Yardbirds, The - The Yardbirds
DYEAR=1996
DGENRE=Blues
TTITLE0=Heartful Of Soul
TTITLE1=Still I'm Sad
TTITLE2=For Your Love
TTITLE3=Shapes Of Things
TTITLE4=I'm A Man
TTITLE5=Good Morning Little Schoolgirl
TTITLE6=Evil Hearted You
TTITLE7=Boom Boom
TTITLE8=Big Boss Man
TTITLE9=Train Kept A Rolling
TTITLE10=Stroll On
TTITLE11=A Certain Girl
TTITLE12=Honey In Your Hips
TTITLE13=I Wish You Would
TTITLE14=I Ain't Got You
TTITLE15=Talking About You
TTITLE16=Got To Hurry
TTITLE17=Jeff's Blues
EXTD=
EXTT0=
EXTT1=
EXTT2=
EXTT3=
EXTT4=
EXTT5=
EXTT6=
EXTT7=
EXTT8=
EXTT9=
EXTT10=
EXTT11=
EXTT12=
EXTT13=
EXTT14=
EXTT15=
EXTT16=
EXTT17=
PLAYORDER=
